<svg width="16" height="15" viewBox="0 0 16 15" fill="none" xmlns="http://www.w3.org/2000/svg">
<path d="M0 0L8 14.0488L16 0H10.4L8 4.21463L5.6 0H0ZM8.62448 5.24207L8.59954 6.45307L9.67575 5.92671L9.00878 6.9326L10.1949 7.07871L9.09746 7.55918L10.0166 8.3328L8.83788 8.13518L9.19908 9.28999L8.31224 8.47703L8 9.64683L7.68776 8.47703L6.80092 9.28999L7.16213 8.13518L5.98337 8.3328L6.90254 7.55918L5.80508 7.07871L6.99122 6.9326L6.32425 5.92671L7.40046 6.45307L7.37552 5.24207L8 6.27512L8.62448 5.24207Z" fill="#FAFAFA"/>
</svg>
